# xmcd CD database file
#
# Track frame offsets:
#	150
#	4162
#	21685
#	51085
#	80640
#	105535
#	130585
#	151373
#	173325
#	192990
#
# Disc length: 2738 seconds
#
# Revision: 0
# Processed by: cddbd v1.5.2PL0 Copyright (c) Steve Scherf et al.
# Submitted via: CDex 1.70beta3
#
DISCID=770ab00a
DTITLE=fox capture plan - WALL
DYEAR=2014
DGENRE=Jazz
TTITLE0=into the wall
TTITLE1=疾走する閃光
TTITLE2=Elementary Stream
TTITLE3=Paranoid Android
TTITLE4=Helios
TTITLE5=unsolved
TTITLE6=tong poo
TTITLE7=a,s,a
TTITLE8=this wall
TTITLE9=the begining of the myth ep.II
EXTD=YEAR: 2014
EXTT0=
EXTT1=
EXTT2=
EXTT3=
EXTT4=
EXTT5=
EXTT6=
EXTT7=
EXTT8=
EXTT9=
PLAYORDER=
